<svg width="361" height="83" viewBox="0 0 361 83" fill="none" xmlns="http://www.w3.org/2000/svg">
<path d="M148.134 23.1132L133.842 12.7117L121 0L141.713 2.11134L156.626 8.56398L165.532 17.9307L168.225 27.9219L172.16 21.0529L175.267 17.9307L180.653 14.6003L188.523 11.2699L197.43 8.56398L214 5.64988L210.065 12.2894L203.644 19.5959L193.287 26.673L183.345 30.0034L169.053 33.9582V52.4835L170.918 70.3844L173.196 81H165.325L166.568 77.6696L166.982 68.3029V62.7349V57.1669V51.5989V46.0309V39.9945L166.568 33.9582L162.011 30.0034L148.134 23.1132Z" fill="#CBE4B1"/>
<path d="M159.806 20.8675L157.558 18.3861L154.288 15.6978L148.401 11.9757L139 6L151.058 12.3893L156.372 15.6978L159.642 18.7996L161.891 21.6946L165.161 26.2439L166.387 28.7254L167 30.5864V31L166.387 29.9661L163.526 25.8304L161.441 22.9353L159.806 20.8675Z" fill="#B3C4A2"/>
<path d="M168 33L170.504 29.2418L172.59 27.1538L176.971 24.022L183.439 19.8462L191.576 15.8791L197 14L188.446 18.1758L182.396 21.5165L177.18 25.0659L174.05 27.1538L171.547 29.2418L168 33Z" fill="#B3C4A2"/>
<path d="M168.212 33.5552L169.059 33.1409L185.149 27.9402L193.829 24.0249L202.509 18.0166L215 6L210.977 12.6087L204.414 19.8812L193.829 26.9254L183.667 30.2403L169.059 34.1768V50.2422L170.011 60.338L170.488 65.3858L170.964 70.4337L172.128 75.7169L173.293 81H170.964L169.694 72.5055L169.059 61.9392L168 48.2652V38.942V35.6271L168.212 33.5552Z" fill="#9CB781"/>
<path d="M160.045 27.7423L153.5 24.1963L143.068 17.3129L132.841 9.59509L122 0L134.477 12.9325L148.386 23.1534L162.295 30.454L167 34L164.955 31.2883L160.045 27.7423Z" fill="#9CB781"/>
<path d="M15.1562 38.375C13.4062 38.4583 11.8854 38.5625 10.5938 38.6875L9.90625 77.8125H14.0625L15.1562 38.375ZM17.7188 64.75C19.0104 65.0833 20.625 65.25 22.5625 65.25C24.5 65.25 26.4583 64.9688 28.4375 64.4062C30.4375 63.8229 32.1875 62.9688 33.6875 61.8438C36.9792 59.4062 38.625 56.0417 38.625 51.75C38.625 45.7917 35.4062 41.7917 28.9688 39.75C26.5938 38.9792 23.8021 38.5208 20.5938 38.375H18.4062L17.7188 64.75ZM22 81.5625C15.3542 80.8958 8.78125 80.8958 2.28125 81.5625H2.15625C1.69792 81.5625 1.30208 81.3958 0.96875 81.0625C0.65625 80.75 0.5 80.3854 0.5 79.9688C0.5 79.5521 0.635417 79.1875 0.90625 78.875C1.19792 78.5625 1.63542 78.375 2.21875 78.3125C2.82292 78.25 3.51042 78.1875 4.28125 78.125C5.07292 78.0625 5.85417 78 6.625 77.9375L7.34375 39.1562C5.80208 39.4062 4.65625 39.6562 3.90625 39.9062C3.17708 40.1562 2.73958 40.3125 2.59375 40.375C2.44792 40.4167 2.21875 40.4375 1.90625 40.4375C1.61458 40.4375 1.30208 40.2604 0.96875 39.9062C0.65625 39.5521 0.5 39.1875 0.5 38.8125C0.5 38 0.84375 37.4688 1.53125 37.2188C5.84375 35.7812 11.2604 35.0625 17.7812 35.0625H19.1875C19.6875 35.0625 20.5104 35.0938 21.6562 35.1562C22.8021 35.1979 24.25 35.3646 26 35.6562C27.75 35.9479 29.4167 36.3958 31 37C32.5833 37.5833 34.0312 38.3125 35.3438 39.1875C36.6771 40.0625 37.8333 41.1042 38.8125 42.3125C40.875 44.8958 41.9062 48.0417 41.9062 51.75C41.9062 56.8958 39.7812 61.0625 35.5312 64.25C31.6979 67.1042 27.25 68.5312 22.1875 68.5312C20.4167 68.5312 18.9062 68.375 17.6562 68.0625L17.4062 77.9375C18.5938 78.0208 20.2292 78.1458 22.3125 78.3125C22.7292 78.375 23.0729 78.5625 23.3438 78.875C23.6354 79.1875 23.7812 79.5729 23.7812 80.0312C23.7812 80.4688 23.6042 80.8333 23.25 81.125C22.8958 81.4167 22.5208 81.5625 22.125 81.5625H22ZM60.7 39.4688C59.3458 39.5938 57.9188 39.6562 56.4188 39.6562H56.1688V77.4062H60.7V39.4688ZM52.9188 39.5938L49.075 39.1562C48.6583 39.0938 48.3146 38.9062 48.0438 38.5938C47.7938 38.2812 47.6688 37.8958 47.6688 37.4375C47.6688 36.9583 47.8563 36.5833 48.2313 36.3125C48.6063 36.0208 48.9708 35.875 49.325 35.875H49.5125C49.5333 35.875 49.7208 35.9062 50.075 35.9688C50.4292 36.0104 50.9083 36.0625 51.5125 36.125C53.0125 36.3125 54.6688 36.4062 56.4813 36.4062C58.7104 36.4062 60.2104 36.3229 60.9813 36.1562C61.7521 35.9688 62.2938 35.875 62.6063 35.875C62.9396 35.875 63.2625 36.0521 63.575 36.4062C63.8875 36.7396 64.0438 37.1146 64.0438 37.5312L63.9813 77.75C64.5646 77.8125 65.0229 77.875 65.3563 77.9375C65.7104 77.9792 66.0021 78.0208 66.2313 78.0625C66.4813 78.0833 66.7938 78.1354 67.1688 78.2188C67.5646 78.3021 67.8875 78.4896 68.1375 78.7812C68.3875 79.0729 68.5125 79.4375 68.5125 79.875C68.5125 80.2917 68.3354 80.6562 67.9813 80.9688C67.6479 81.2812 67.2729 81.4375 66.8563 81.4375H66.5438C60.7729 80.4167 55.075 80.4375 49.45 81.5H49.1375C48.6167 81.5 48.2208 81.3333 47.95 81C47.6792 80.6875 47.5438 80.3229 47.5438 79.9062C47.5438 79.0312 47.9708 78.4792 48.825 78.25C50.075 78.0417 51.4396 77.875 52.9188 77.75V39.5938ZM96.7125 70.0625C96.6292 69.3542 96.5875 68.6042 96.5875 67.8125H95.4313C92.0146 67.8125 88.6604 68.4375 85.3688 69.6875C81.1604 71.2708 79.0563 73.5312 79.0563 76.4688C79.0563 77.5521 79.5458 78.3958 80.525 79C81.3375 79.4792 82.4 79.7188 83.7125 79.7188C85.025 79.7188 86.3375 79.4375 87.65 78.875C88.9833 78.2917 90.2125 77.5417 91.3375 76.625C93.3375 74.9583 95.1292 72.7708 96.7125 70.0625ZM104.244 77.8125C104.306 77.1875 104.338 75.9375 104.338 74.0625C104.338 72.1875 104.296 70.4062 104.213 68.7188C104.15 67.0104 103.994 65.3646 103.744 63.7812C103.494 62.1979 103.119 60.7083 102.619 59.3125C102.119 57.9167 101.442 56.7083 100.588 55.6875C98.6917 53.4375 96.0563 52.3125 92.6813 52.3125C92.6188 52.3125 92.5667 52.3333 92.525 52.375C92.4833 52.3958 92.4313 52.4062 92.3688 52.4062H92.4938C95.8479 54.2188 98.025 57.2292 99.025 61.4375C99.5875 63.75 99.8896 65.9479 99.9313 68.0312C99.9938 70.0938 100.025 71.7188 100.025 72.9062C100.025 74.7812 99.9417 76.6667 99.775 78.5625C101.275 78.25 102.765 78 104.244 77.8125ZM109.494 77.4688L111.744 77.5312C112.202 77.5729 112.567 77.75 112.838 78.0625C113.129 78.375 113.275 78.7604 113.275 79.2188C113.275 79.6562 113.119 80.0417 112.806 80.375C112.515 80.7083 112.14 80.875 111.681 80.875H111.556C111.202 80.8333 110.838 80.8125 110.463 80.8125H109.369C105.556 80.8125 101.869 81.3229 98.3063 82.3438L97.8688 82.4062C97.3896 82.4062 96.9938 82.2188 96.6813 81.8438C96.3896 81.4896 96.2438 81.125 96.2438 80.75V80.5C96.2438 80.4583 96.2958 80.0417 96.4 79.25C96.5042 78.4375 96.6083 77.3125 96.7125 75.875C92.4833 80.6042 88.0875 82.9688 83.525 82.9688C81.4208 82.9688 79.6292 82.3854 78.15 81.2188C76.5667 79.9896 75.775 78.5 75.775 76.75C75.775 75 76.1083 73.5312 76.775 72.3438C77.4625 71.1562 78.3583 70.125 79.4625 69.25C80.5667 68.3542 81.8167 67.6146 83.2125 67.0312C84.6292 66.4271 86.0667 65.9375 87.525 65.5625C90.2333 64.8958 92.8688 64.5625 95.4313 64.5625H96.1813C96.1813 61.9167 95.3375 59.6042 93.65 57.625C91.8583 55.5417 89.6813 54.5 87.1188 54.5C85.2021 54.5 83.4104 55.4792 81.7438 57.4375C80.1188 59.3333 79.3063 61.3229 79.3063 63.4062C79.3063 63.8229 79.1292 64.1771 78.775 64.4688C78.4417 64.7396 78.0563 64.875 77.6188 64.875C77.1813 64.875 76.7958 64.7083 76.4625 64.375C76.1292 64.0208 75.9625 63.4896 75.9625 62.7812C75.9625 62.0729 76.1396 61.1771 76.4938 60.0938C76.8479 58.9896 77.3583 57.9167 78.025 56.875C78.7125 55.8125 79.5354 54.8125 80.4938 53.875C81.4729 52.9375 82.5875 52.1042 83.8375 51.375C86.5042 49.8333 89.2125 49.0625 91.9625 49.0625C94.7333 49.0625 96.9417 49.4271 98.5875 50.1562C100.254 50.8854 101.64 51.875 102.744 53.125C103.869 54.375 104.754 55.8229 105.4 57.4688C106.046 59.1146 106.535 60.8542 106.869 62.6875C107.39 65.5625 107.65 69.2396 107.65 73.7188L107.588 77.5312L109.494 77.4688ZM130.194 54.0625C129.131 54.2292 127.704 54.3125 125.912 54.3125H125.662V77.8125C126.704 77.8125 127.6 77.8125 128.35 77.8125C129.121 77.8125 129.735 77.8333 130.194 77.875V54.0625ZM125.975 50.9688C128.225 50.9688 130.183 50.8021 131.85 50.4688C132.329 50.4688 132.725 50.6458 133.037 51C133.371 51.3333 133.537 51.7083 133.537 52.125V55.3438C135.975 51.7604 139.319 49.9688 143.569 49.9688C147.84 49.9688 150.621 52.5938 151.912 57.8438C152.371 59.6354 152.6 61.375 152.6 63.0625C152.6 64.75 152.548 66.2188 152.444 67.4688C152.34 68.6979 152.204 69.9271 152.037 71.1562C151.746 73.5938 151.381 75.6979 150.944 77.4688C151.735 77.5104 152.548 77.5521 153.381 77.5938C154.235 77.6354 154.996 77.6875 155.662 77.75C156.871 77.8958 157.475 78.5104 157.475 79.5938C157.433 80.0104 157.246 80.3646 156.912 80.6562C156.579 80.9271 156.204 81.0625 155.787 81.0625H155.662C153.662 80.8542 151.475 80.75 149.1 80.75C146.746 80.75 144.537 80.9792 142.475 81.4375C142.037 81.4375 141.652 81.2708 141.319 80.9375C140.985 80.5833 140.819 80.2083 140.819 79.8125C140.819 79.4167 140.944 79.0625 141.194 78.75C141.465 78.4375 141.912 78.2292 142.537 78.125C143.475 77.9375 145.142 77.7396 147.537 77.5312C148.225 75.1562 148.694 72.5729 148.944 69.7812C149.194 66.9688 149.319 65.0521 149.319 64.0312C149.319 56.8229 147.402 53.2188 143.569 53.2188C140.819 53.2188 138.433 54.4792 136.412 57C134.496 59.3542 133.537 61.8125 133.537 64.375V64.4375L133.475 78.1875C133.85 78.2292 134.215 78.2708 134.569 78.3125C134.923 78.3333 135.287 78.375 135.662 78.4375C136.058 78.4792 136.392 78.6562 136.662 78.9688C136.954 79.2604 137.1 79.625 137.1 80.0625C137.1 80.5 136.923 80.8854 136.569 81.2188C136.235 81.5521 135.944 81.7188 135.694 81.7188C135.444 81.7188 135.298 81.6875 135.256 81.625C131.506 81.25 128.923 81.0625 127.506 81.0625C124.735 81.0625 122.548 81.2083 120.944 81.5C119.34 81.8125 118.381 81.9688 118.069 81.9688C117.777 81.9688 117.485 81.7917 117.194 81.4375C116.902 81.0833 116.756 80.7083 116.756 80.3125C116.756 79.9167 116.871 79.5625 117.1 79.25C117.329 78.9375 117.735 78.7292 118.319 78.625C119.485 78.3958 120.84 78.2083 122.381 78.0625V54.1875C119.59 54.0625 117.996 53.9167 117.6 53.75C117.183 53.7083 116.84 53.5312 116.569 53.2188C116.319 52.9062 116.194 52.5208 116.194 52.0625C116.194 51.6042 116.371 51.2292 116.725 50.9375C117.079 50.625 117.371 50.4688 117.6 50.4688C117.85 50.4688 117.985 50.4792 118.006 50.5C118.048 50.5208 118.298 50.5521 118.756 50.5938C119.215 50.6354 119.808 50.6875 120.537 50.75C122.267 50.8958 124.079 50.9688 125.975 50.9688ZM199 37.75C197.417 37.8125 195.938 37.9375 194.562 38.125C194.542 39.4583 194.531 40.9792 194.531 42.6875C194.531 44.375 194.531 46.1875 194.531 48.125C194.552 50.0417 194.573 52.0312 194.594 54.0938C194.615 56.1354 194.635 58.1771 194.656 60.2188C194.698 62.2396 194.729 64.2083 194.75 66.125C194.792 68.0417 194.833 69.8333 194.875 71.5C194.938 75.3542 194.969 77.8646 194.969 79.0312C196.115 79.1562 197.458 79.2812 199 79.4062V37.75ZM204.062 62C204.062 62 203.458 62.0208 202.25 62.0625V79.5312H203.719C210.781 79.5312 215.438 77.9896 217.688 74.9062C218.542 73.7604 218.969 72.4375 218.969 70.9375C218.969 69.4167 218.719 68.1979 218.219 67.2812C217.74 66.3646 217.094 65.5938 216.281 64.9688C215.469 64.3229 214.531 63.8125 213.469 63.4375C212.427 63.0417 211.354 62.7396 210.25 62.5312C208.375 62.1771 206.312 62 204.062 62ZM206.156 58.6562C217.677 58.6562 223.438 55.2292 223.438 48.375C223.438 45.6458 222.167 43.375 219.625 41.5625C216.438 39.3125 212.042 38.0312 206.438 37.7188C204.896 37.6354 203.5 37.625 202.25 37.6875V58.6562H206.156ZM191.25 38.625L188 39.4062C187.521 39.4062 187.115 39.2396 186.781 38.9062C186.469 38.5521 186.312 38.1875 186.312 37.8125C186.312 37 186.698 36.4375 187.469 36.125C191.531 34.9792 196.312 34.4062 201.812 34.4062C208.167 34.4062 213.542 35.2708 217.938 37C221.542 38.4167 224.083 40.5 225.562 43.25C226.333 44.7083 226.719 46.3438 226.719 48.1562C226.719 49.9688 226.427 51.5729 225.844 52.9688C225.281 54.3438 224.5 55.5625 223.5 56.625C221.458 58.75 218.771 60.0938 215.438 60.6562C218.667 61.8229 220.792 64.0208 221.812 67.25C222.125 68.2708 222.281 69.4792 222.281 70.875C222.281 72.2708 222.052 73.5729 221.594 74.7812C221.135 75.9688 220.479 77.0104 219.625 77.9062C218.792 78.7812 217.792 79.5208 216.625 80.125C215.458 80.7083 214.177 81.1875 212.781 81.5625C210.135 82.25 206.99 82.6562 203.344 82.7812C198.76 82.8229 194.708 82.4479 191.188 81.6562C189.125 81.1979 187.802 80.7708 187.219 80.375C186.615 80.0833 186.312 79.6562 186.312 79.0938C186.312 78.5104 186.49 78.0625 186.844 77.75C187.219 77.4375 187.542 77.2812 187.812 77.2812C188.188 77.2812 188.438 77.3125 188.562 77.375C189.25 77.7083 190.271 78.0417 191.625 78.375C191.604 77.1667 191.583 75.5938 191.562 73.6562C191.542 71.7188 191.51 69.5729 191.469 67.2188C191.448 64.8438 191.417 62.3542 191.375 59.75C191.354 57.125 191.333 54.5417 191.312 52C191.292 49.4583 191.271 47.0312 191.25 44.7188C191.229 42.4062 191.229 40.375 191.25 38.625ZM265.637 52.5938H264.387C263.762 52.5938 262.971 52.5521 262.012 52.4688L261.2 78.75C262.742 78.5 264.273 78.3333 265.794 78.25L266.294 52.5312C266.065 52.5729 265.846 52.5938 265.637 52.5938ZM260.606 49C261.731 49.1667 263.596 49.25 266.2 49.25C268.804 49.25 271.273 48.9583 273.606 48.375C274.085 48.375 274.481 48.5521 274.794 48.9062C275.106 49.2396 275.262 49.6042 275.262 50C275.262 50.3958 275.137 50.75 274.887 51.0625C274.658 51.375 274.252 51.5938 273.669 51.7188C273.106 51.8229 272.46 51.9271 271.731 52.0312C271.002 52.1146 270.283 52.2083 269.575 52.3125L269.075 78.1875C270.887 78.1875 272.2 78.2396 273.012 78.3438C274.346 78.5104 275.012 79.0729 275.012 80.0312C275.012 80.5521 274.835 80.9583 274.481 81.25C274.148 81.5625 273.794 81.7188 273.419 81.7188H273.231C268.627 81.1562 264.169 81.3646 259.856 82.3438H259.512C259.075 82.3438 258.69 82.1771 258.356 81.8438C258.023 81.5312 257.856 81.1667 257.856 80.75V80.6875L258.044 74.9688C255.356 79.8854 251.877 82.3438 247.606 82.3438C243.919 82.3438 241.158 80.6875 239.325 77.375C237.867 74.6875 237.137 71.5208 237.137 67.875C237.137 62.2292 238.2 57.0729 240.325 52.4062L234.7 52.25C234.242 52.2083 233.856 52.0417 233.544 51.75C233.252 51.4375 233.106 51.0625 233.106 50.625C233.106 50.1875 233.262 49.8125 233.575 49.5C233.887 49.1667 234.283 49 234.762 49L243.012 49.1875C243.471 49.25 243.846 49.4375 244.137 49.75C244.45 50.0417 244.606 50.3333 244.606 50.625C244.606 51 244.523 51.3542 244.356 51.6875C242.96 53.0833 241.804 56.75 240.887 62.6875C240.554 64.8542 240.387 66.5938 240.387 67.9062C240.387 69.2188 240.492 70.5417 240.7 71.875C240.929 73.1875 241.315 74.375 241.856 75.4375C243.085 77.875 244.981 79.0938 247.544 79.0938C250.106 79.0938 252.346 77.6667 254.262 74.8125C256.179 72 257.554 68.0938 258.387 63.0938L258.762 50.5312C258.762 50.0729 258.94 49.7083 259.294 49.4375C259.648 49.1458 260.023 49 260.419 49H260.606ZM305.775 57.4375C305.192 55.6875 304.004 54.3021 302.212 53.2812C300.65 52.3854 299.015 51.9375 297.306 51.9375C295.598 51.9375 294.192 52.1667 293.087 52.625C291.983 53.0625 291.015 53.6667 290.181 54.4375C289.348 55.1875 288.629 56.0729 288.025 57.0938C287.442 58.0938 286.962 59.1458 286.587 60.25C285.879 62.375 285.525 64.4271 285.525 66.4062C285.546 68.3646 285.754 70.0521 286.15 71.4688C286.567 72.8646 287.171 74.1042 287.962 75.1875C289.733 77.6042 292.056 78.8125 294.931 78.8125C297.41 78.8125 299.608 77.6562 301.525 75.3438C302.962 73.5729 304.098 71.3333 304.931 68.625C305.619 66.3542 305.9 64.8229 305.775 64.0312V57.4375ZM309.087 78.3125C310.546 78 312.056 77.7917 313.619 77.6875V39.0312C312.556 39.1979 311.129 39.2812 309.337 39.2812H309.087V78.3125ZM303.9 35.75C304.65 35.8125 305.504 35.875 306.462 35.9375C307.421 35.9792 308.712 36 310.337 36C311.962 36 313.483 35.8333 314.9 35.5H315.306C315.785 35.5 316.171 35.6667 316.462 36C316.754 36.3125 316.9 36.6771 316.9 37.0938V77.4688H317.525C318.983 77.4688 320.004 77.5 320.587 77.5625C321.192 77.625 321.629 77.8125 321.9 78.125C322.192 78.4375 322.337 78.8229 322.337 79.2812C322.337 79.7396 322.15 80.125 321.775 80.4375C321.421 80.7292 321.056 80.875 320.681 80.875H320.556C319.515 80.7917 318.41 80.75 317.244 80.75C316.098 80.75 314.942 80.8125 313.775 80.9375C312.608 81.0625 311.587 81.1979 310.712 81.3438C309.858 81.5104 309.171 81.6562 308.65 81.7812C308.15 81.9062 307.879 81.9792 307.837 82C307.796 82.0208 307.733 82.0312 307.65 82.0312H307.431C306.952 82.0312 306.556 81.8542 306.244 81.5C305.931 81.1667 305.775 80.7917 305.775 80.375V75.0625C304.233 78.2708 301.796 80.4375 298.462 81.5625C297.358 81.9167 296.004 82.0938 294.4 82.0938C292.817 82.0938 291.244 81.6875 289.681 80.875C288.119 80.0625 286.796 78.9792 285.712 77.625C283.462 74.8333 282.317 71.3333 282.275 67.125C282.275 62.1458 283.483 57.9062 285.9 54.4062C288.504 50.5938 292.16 48.6875 296.869 48.6875C300.41 48.6875 303.379 49.7083 305.775 51.75V39.1562C305.775 39.1562 304.192 39.0208 301.025 38.75C300.608 38.6875 300.254 38.5 299.962 38.1875C299.692 37.875 299.556 37.5 299.556 37.0625C299.556 36.625 299.723 36.2604 300.056 35.9688C300.41 35.6562 300.796 35.5 301.212 35.5H301.4C301.421 35.5 301.66 35.5312 302.119 35.5938C302.577 35.6354 303.171 35.6875 303.9 35.75ZM356.569 74.0938C356.86 73.3229 357.006 72.5833 357.006 71.875C357.006 71.1667 356.829 70.4896 356.475 69.8438C356.142 69.1979 355.694 68.6458 355.131 68.1875C354.569 67.7083 353.923 67.3125 353.194 67C352.465 66.6667 351.715 66.3854 350.944 66.1562C350.173 65.9271 349.413 65.7396 348.663 65.5938C347.913 65.4271 347.173 65.2604 346.444 65.0938C345.735 64.9271 344.923 64.75 344.006 64.5625C343.11 64.375 342.204 64.1667 341.288 63.9375C340.392 63.6875 339.517 63.3854 338.663 63.0312C337.829 62.6771 337.069 62.25 336.381 61.75C334.881 60.6875 333.954 59.2917 333.6 57.5625C333.079 58.6875 332.819 59.8021 332.819 60.9062C332.819 62.0104 333.006 62.9375 333.381 63.6875C333.777 64.4375 334.288 65.0938 334.913 65.6562C335.558 66.2188 336.288 66.6979 337.1 67.0938C337.913 67.4688 338.756 67.7917 339.631 68.0625C341.173 68.5 342.517 68.7812 343.663 68.9062C344.829 69.0312 345.788 69.1562 346.538 69.2812C347.308 69.3854 348.11 69.5312 348.944 69.7188C349.777 69.9062 350.61 70.1354 351.444 70.4062C352.277 70.6562 353.048 70.9583 353.756 71.3125C355.319 72.1042 356.256 73.0312 356.569 74.0938ZM352.975 55.7188C350.288 53.5938 346.85 52.5312 342.663 52.5312C340.142 52.5312 338.35 53.2188 337.288 54.5938C336.913 55.0938 336.725 55.6875 336.725 56.375C336.725 57.0625 336.933 57.6562 337.35 58.1562C337.767 58.6354 338.298 59.0625 338.944 59.4375C339.59 59.8125 340.308 60.1354 341.1 60.4062C341.913 60.6771 342.704 60.9062 343.475 61.0938C344.267 61.2812 344.996 61.4375 345.663 61.5625C346.35 61.6875 347.152 61.8438 348.069 62.0312C349.006 62.2188 350.235 62.5521 351.756 63.0312C353.298 63.4896 354.704 64.1042 355.975 64.875C358.85 66.6667 360.288 69.0729 360.288 72.0938C360.288 75.4271 358.704 78.1042 355.538 80.125C352.704 81.9375 349.652 82.8438 346.381 82.8438C340.902 82.8438 336.298 81.25 332.569 78.0625V79.125C332.569 79.4583 332.59 79.7812 332.631 80.0938V80.2188C332.631 80.6354 332.485 81.0104 332.194 81.3438C331.923 81.6771 331.558 81.8438 331.1 81.8438C330.663 81.8438 330.267 81.6979 329.913 81.4062C329.579 81.1354 329.392 80.7917 329.35 80.375C329.308 79.9583 329.288 79.5417 329.288 79.125V77.8125C329.288 76.1458 329.34 74.6771 329.444 73.4062C329.548 72.1146 329.61 71.3542 329.631 71.125C329.673 70.8958 329.84 70.6458 330.131 70.375C330.444 70.0833 330.829 69.9375 331.288 69.9375C331.767 69.9375 332.152 70.1042 332.444 70.4375C332.735 70.7708 332.881 71.1354 332.881 71.5312V71.7188C332.819 72.2812 332.756 72.9479 332.694 73.7188C336.319 77.5938 340.881 79.5312 346.381 79.5312C348.84 79.5312 350.829 79.125 352.35 78.3125C353.371 77.7708 353.881 77.0833 353.881 76.25C353.881 74.5 351.079 73.2188 345.475 72.4062C344.913 72.3229 344.11 72.2292 343.069 72.125C342.048 72 340.663 71.6875 338.913 71.1875C337.183 70.6667 335.621 69.9583 334.225 69.0625C331.121 67.0625 329.569 64.4062 329.569 61.0938C329.569 57.5729 330.933 54.6771 333.663 52.4062C336.163 50.3021 339.163 49.25 342.663 49.25C347.183 49.25 351.027 50.3438 354.194 52.5312C354.985 50.5729 355.663 49.4583 356.225 49.1875C356.496 49.0625 356.808 49 357.163 49C357.538 49 357.881 49.1667 358.194 49.5C358.506 49.8125 358.663 50.1562 358.663 50.5312C358.663 50.9062 358.423 51.5 357.944 52.3125C356.569 54.6667 355.704 57.2708 355.35 60.125C355.288 60.5208 355.1 60.8542 354.788 61.125C354.475 61.3958 354.1 61.5312 353.663 61.5312C353.225 61.5312 352.85 61.3646 352.538 61.0312C352.225 60.6771 352.069 60.2917 352.069 59.875V59.625C352.298 58.3333 352.6 57.0312 352.975 55.7188Z" fill="#758764"/>
</svg>
